<svg width="42" height="48" viewBox="0 0 42 48" fill="none" xmlns="http://www.w3.org/2000/svg">
<path d="M0.980874 23.6457C0.980874 23.6457 2.25347 29.6386 7.36909 34.7542C10.6164 38.0015 15.5099 42.514 21.7766 48.0013V40.2157C21.7766 40.2157 31.7528 40.4145 38.087 31.0227C44.537 21.4587 38.8282 8.70714 35.492 5.445C32.6805 2.69615 30.4508 1.29297 26.5214 0.0323257C26.7438 0.921885 31.467 1.08286 36.1592 9.67008C40.8514 18.2573 34.5281 28.5755 34.5281 28.5755C34.5281 28.5755 31.6367 32.5048 29.4856 33.618V9.52268H23.7041V35.99C23.7041 35.99 14.5111 38.6596 7.468 32.5795C3.4055 28.517 3.6127 28.8725 0.980874 23.6457Z" fill="#868788"/>
<path d="M13.6212 34.0622V16.5658H7.83876V29.318C7.83876 29.318 4.35422 25.6847 4.27987 21.0139C4.20553 16.3431 4.799 14.638 4.799 14.638C4.799 14.638 6.05931 9.44834 10.9525 6.33552C15.8458 3.22271 21.5548 2.99935 24.2972 3.74087C27.0396 4.48238 32.3783 6.77934 35.4167 14.3432C34.7492 11.6742 33.1185 6.58992 28.744 3.3853C24.3696 0.180692 19.8459 0.0323243 19.8459 0.0323243C19.8459 0.0323243 16.2162 -0.263441 13.6956 0.92253C11.1749 2.1085 8.06115 3.81424 5.46617 6.4089C2.87119 9.00356 1.09207 12.9743 0.980874 17.0312C0.869679 21.0882 3.68672 26.2035 3.68672 26.2035C3.68672 26.2035 7.61604 32.5054 13.6212 34.0622Z" fill="#C1CE4B"/>
<path d="M15.549 13.452H21.4058V35.3968L15.549 34.7293V13.452Z" fill="#868788"/>
</svg>
